<mxfile host="app.diagrams.net" modified="2022-12-25T12:16:34.271Z" agent="5.0 (X11; Ubuntu)" etag="E0vBun4BErF2CXPaS27k" version="20.7.4" type="github">
  <diagram id="mzuAZwKTkFhIRIA_6qAM" name="Страница 1">
    <mxGraphModel dx="1603" dy="1053" grid="1" gridSize="10" guides="1" tooltips="1" connect="1" arrows="1" fold="1" page="1" pageScale="1" pageWidth="827" pageHeight="1169" math="0" shadow="0">
      <root>
        <mxCell id="0" />
        <mxCell id="1" parent="0" />
        <mxCell id="z3GhhZUf5gj_2L2bfjcH-2" value="" style="ellipse;whiteSpace=wrap;html=1;aspect=fixed;" parent="1" vertex="1">
          <mxGeometry x="220" y="440" width="110" height="110" as="geometry" />
        </mxCell>
        <mxCell id="z3GhhZUf5gj_2L2bfjcH-3" value="" style="ellipse;whiteSpace=wrap;html=1;aspect=fixed;" parent="1" vertex="1">
          <mxGeometry x="400" y="250" width="110" height="110" as="geometry" />
        </mxCell>
        <mxCell id="z3GhhZUf5gj_2L2bfjcH-4" value="" style="ellipse;whiteSpace=wrap;html=1;aspect=fixed;" parent="1" vertex="1">
          <mxGeometry x="400" y="590" width="110" height="110" as="geometry" />
        </mxCell>
        <mxCell id="z3GhhZUf5gj_2L2bfjcH-5" value="" style="ellipse;whiteSpace=wrap;html=1;aspect=fixed;" parent="1" vertex="1">
          <mxGeometry x="580" y="340" width="100" height="100" as="geometry" />
        </mxCell>
        <mxCell id="z3GhhZUf5gj_2L2bfjcH-6" value="" style="ellipse;whiteSpace=wrap;html=1;aspect=fixed;" parent="1" vertex="1">
          <mxGeometry x="780" y="590" width="110" height="110" as="geometry" />
        </mxCell>
        <mxCell id="z3GhhZUf5gj_2L2bfjcH-7" value="" style="ellipse;whiteSpace=wrap;html=1;aspect=fixed;" parent="1" vertex="1">
          <mxGeometry x="560" y="469" width="100" height="100" as="geometry" />
        </mxCell>
        <mxCell id="z3GhhZUf5gj_2L2bfjcH-8" value="" style="ellipse;whiteSpace=wrap;html=1;aspect=fixed;" parent="1" vertex="1">
          <mxGeometry x="890" y="250" width="110" height="110" as="geometry" />
        </mxCell>
        <mxCell id="z3GhhZUf5gj_2L2bfjcH-9" value="" style="ellipse;whiteSpace=wrap;html=1;aspect=fixed;" parent="1" vertex="1">
          <mxGeometry x="1070" y="440" width="110" height="110" as="geometry" />
        </mxCell>
        <mxCell id="z3GhhZUf5gj_2L2bfjcH-10" value="" style="endArrow=classic;html=1;rounded=0;entryX=0.194;entryY=0.97;entryDx=0;entryDy=0;entryPerimeter=0;strokeWidth=1;" parent="1" source="z3GhhZUf5gj_2L2bfjcH-2" target="z3GhhZUf5gj_2L2bfjcH-3" edge="1">
          <mxGeometry width="50" height="50" relative="1" as="geometry">
            <mxPoint x="690" y="550" as="sourcePoint" />
            <mxPoint x="740" y="500" as="targetPoint" />
          </mxGeometry>
        </mxCell>
        <mxCell id="z3GhhZUf5gj_2L2bfjcH-11" value="" style="endArrow=classic;html=1;rounded=0;" parent="1" source="z3GhhZUf5gj_2L2bfjcH-4" target="z3GhhZUf5gj_2L2bfjcH-6" edge="1">
          <mxGeometry width="50" height="50" relative="1" as="geometry">
            <mxPoint x="690" y="550" as="sourcePoint" />
            <mxPoint x="740" y="500" as="targetPoint" />
          </mxGeometry>
        </mxCell>
        <mxCell id="z3GhhZUf5gj_2L2bfjcH-12" value="" style="endArrow=classic;html=1;rounded=0;strokeWidth=2;" parent="1" source="z3GhhZUf5gj_2L2bfjcH-4" target="z3GhhZUf5gj_2L2bfjcH-7" edge="1">
          <mxGeometry width="50" height="50" relative="1" as="geometry">
            <mxPoint x="690" y="550" as="sourcePoint" />
            <mxPoint x="740" y="500" as="targetPoint" />
          </mxGeometry>
        </mxCell>
        <mxCell id="z3GhhZUf5gj_2L2bfjcH-13" value="" style="endArrow=classic;html=1;rounded=0;strokeWidth=1;" parent="1" source="z3GhhZUf5gj_2L2bfjcH-3" target="z3GhhZUf5gj_2L2bfjcH-5" edge="1">
          <mxGeometry width="50" height="50" relative="1" as="geometry">
            <mxPoint x="690" y="550" as="sourcePoint" />
            <mxPoint x="740" y="500" as="targetPoint" />
          </mxGeometry>
        </mxCell>
        <mxCell id="z3GhhZUf5gj_2L2bfjcH-14" value="" style="endArrow=classic;html=1;rounded=0;" parent="1" source="z3GhhZUf5gj_2L2bfjcH-3" target="z3GhhZUf5gj_2L2bfjcH-8" edge="1">
          <mxGeometry width="50" height="50" relative="1" as="geometry">
            <mxPoint x="690" y="550" as="sourcePoint" />
            <mxPoint x="740" y="500" as="targetPoint" />
          </mxGeometry>
        </mxCell>
        <mxCell id="z3GhhZUf5gj_2L2bfjcH-15" value="" style="endArrow=classic;html=1;rounded=0;strokeWidth=3;" parent="1" source="z3GhhZUf5gj_2L2bfjcH-2" target="z3GhhZUf5gj_2L2bfjcH-4" edge="1">
          <mxGeometry width="50" height="50" relative="1" as="geometry">
            <mxPoint x="690" y="550" as="sourcePoint" />
            <mxPoint x="740" y="500" as="targetPoint" />
          </mxGeometry>
        </mxCell>
        <mxCell id="z3GhhZUf5gj_2L2bfjcH-16" value="" style="endArrow=classic;html=1;rounded=0;entryX=0;entryY=0;entryDx=0;entryDy=0;strokeWidth=3;" parent="1" source="z3GhhZUf5gj_2L2bfjcH-7" target="z3GhhZUf5gj_2L2bfjcH-6" edge="1">
          <mxGeometry width="50" height="50" relative="1" as="geometry">
            <mxPoint x="690" y="550" as="sourcePoint" />
            <mxPoint x="740" y="500" as="targetPoint" />
          </mxGeometry>
        </mxCell>
        <mxCell id="z3GhhZUf5gj_2L2bfjcH-17" value="" style="endArrow=classic;html=1;rounded=0;" parent="1" source="z3GhhZUf5gj_2L2bfjcH-5" target="z3GhhZUf5gj_2L2bfjcH-6" edge="1">
          <mxGeometry width="50" height="50" relative="1" as="geometry">
            <mxPoint x="690" y="550" as="sourcePoint" />
            <mxPoint x="740" y="500" as="targetPoint" />
          </mxGeometry>
        </mxCell>
        <mxCell id="z3GhhZUf5gj_2L2bfjcH-18" value="" style="endArrow=classic;html=1;rounded=0;" parent="1" source="z3GhhZUf5gj_2L2bfjcH-6" target="z3GhhZUf5gj_2L2bfjcH-9" edge="1">
          <mxGeometry width="50" height="50" relative="1" as="geometry">
            <mxPoint x="690" y="550" as="sourcePoint" />
            <mxPoint x="740" y="500" as="targetPoint" />
          </mxGeometry>
        </mxCell>
        <mxCell id="z3GhhZUf5gj_2L2bfjcH-19" value="" style="endArrow=classic;html=1;rounded=0;strokeWidth=3;" parent="1" source="z3GhhZUf5gj_2L2bfjcH-8" target="z3GhhZUf5gj_2L2bfjcH-9" edge="1">
          <mxGeometry width="50" height="50" relative="1" as="geometry">
            <mxPoint x="690" y="550" as="sourcePoint" />
            <mxPoint x="740" y="500" as="targetPoint" />
          </mxGeometry>
        </mxCell>
        <mxCell id="z3GhhZUf5gj_2L2bfjcH-24" value="" style="endArrow=classic;html=1;rounded=0;dashed=1;" parent="1" source="z3GhhZUf5gj_2L2bfjcH-5" target="z3GhhZUf5gj_2L2bfjcH-8" edge="1">
          <mxGeometry width="50" height="50" relative="1" as="geometry">
            <mxPoint x="690" y="550" as="sourcePoint" />
            <mxPoint x="740" y="500" as="targetPoint" />
          </mxGeometry>
        </mxCell>
        <mxCell id="z3GhhZUf5gj_2L2bfjcH-25" value="b1" style="text;html=1;strokeColor=none;fillColor=none;align=center;verticalAlign=middle;whiteSpace=wrap;rounded=0;rotation=-50;" parent="1" vertex="1">
          <mxGeometry x="317" y="394" width="60" height="30" as="geometry" />
        </mxCell>
        <mxCell id="z3GhhZUf5gj_2L2bfjcH-26" value="b10" style="text;html=1;strokeColor=none;fillColor=none;align=center;verticalAlign=middle;whiteSpace=wrap;rounded=0;rotation=45;" parent="1" vertex="1">
          <mxGeometry x="1006" y="369" width="60" height="30" as="geometry" />
        </mxCell>
        <mxCell id="z3GhhZUf5gj_2L2bfjcH-27" value="&lt;div&gt;b4&lt;/div&gt;" style="text;html=1;strokeColor=none;fillColor=none;align=center;verticalAlign=middle;whiteSpace=wrap;rounded=0;rotation=15;" parent="1" vertex="1">
          <mxGeometry x="520" y="320" width="60" height="30" as="geometry" />
        </mxCell>
        <mxCell id="z3GhhZUf5gj_2L2bfjcH-28" value="b3" style="text;html=1;strokeColor=none;fillColor=none;align=center;verticalAlign=middle;whiteSpace=wrap;rounded=0;" parent="1" vertex="1">
          <mxGeometry x="650" y="276" width="60" height="30" as="geometry" />
        </mxCell>
        <mxCell id="z3GhhZUf5gj_2L2bfjcH-29" value="b8" style="text;html=1;strokeColor=none;fillColor=none;align=center;verticalAlign=middle;whiteSpace=wrap;rounded=0;rotation=30;" parent="1" vertex="1">
          <mxGeometry x="690" y="530" width="60" height="30" as="geometry" />
        </mxCell>
        <mxCell id="z3GhhZUf5gj_2L2bfjcH-30" value="b7" style="text;html=1;strokeColor=none;fillColor=none;align=center;verticalAlign=middle;whiteSpace=wrap;rounded=0;rotation=-30;" parent="1" vertex="1">
          <mxGeometry x="500" y="550" width="60" height="30" as="geometry" />
        </mxCell>
        <mxCell id="z3GhhZUf5gj_2L2bfjcH-31" value="b6" style="text;html=1;strokeColor=none;fillColor=none;align=center;verticalAlign=middle;whiteSpace=wrap;rounded=0;" parent="1" vertex="1">
          <mxGeometry x="600" y="610" width="60" height="30" as="geometry" />
        </mxCell>
        <mxCell id="z3GhhZUf5gj_2L2bfjcH-32" value="b2" style="text;html=1;strokeColor=none;fillColor=none;align=center;verticalAlign=middle;whiteSpace=wrap;rounded=0;rotation=45;" parent="1" vertex="1">
          <mxGeometry x="340" y="550" width="60" height="30" as="geometry" />
        </mxCell>
        <mxCell id="z3GhhZUf5gj_2L2bfjcH-35" value="b11" style="text;html=1;strokeColor=none;fillColor=none;align=center;verticalAlign=middle;whiteSpace=wrap;rounded=0;rotation=-15;" parent="1" vertex="1">
          <mxGeometry x="920" y="550" width="60" height="30" as="geometry" />
        </mxCell>
        <mxCell id="z3GhhZUf5gj_2L2bfjcH-36" value="Ф" style="text;html=1;strokeColor=none;fillColor=none;align=center;verticalAlign=middle;whiteSpace=wrap;rounded=0;rotation=-10;" parent="1" vertex="1">
          <mxGeometry x="730" y="330" width="60" height="30" as="geometry" />
        </mxCell>
        <mxCell id="z3GhhZUf5gj_2L2bfjcH-39" value="b5" style="text;html=1;strokeColor=none;fillColor=none;align=center;verticalAlign=middle;whiteSpace=wrap;rounded=0;rotation=60;" parent="1" vertex="1">
          <mxGeometry x="700" y="470" width="60" height="30" as="geometry" />
        </mxCell>
        <mxCell id="z3GhhZUf5gj_2L2bfjcH-42" value="1" style="text;html=1;strokeColor=none;fillColor=none;align=center;verticalAlign=middle;whiteSpace=wrap;rounded=0;fontSize=24;" parent="1" vertex="1">
          <mxGeometry x="425" y="289" width="60" height="30" as="geometry" />
        </mxCell>
        <mxCell id="z3GhhZUf5gj_2L2bfjcH-43" value="5" style="text;html=1;strokeColor=none;fillColor=none;align=center;verticalAlign=middle;whiteSpace=wrap;rounded=0;fontSize=24;" parent="1" vertex="1">
          <mxGeometry x="806" y="629" width="60" height="30" as="geometry" />
        </mxCell>
        <mxCell id="z3GhhZUf5gj_2L2bfjcH-44" value="4" style="text;html=1;strokeColor=none;fillColor=none;align=center;verticalAlign=middle;whiteSpace=wrap;rounded=0;fontSize=24;" parent="1" vertex="1">
          <mxGeometry x="582" y="505" width="60" height="30" as="geometry" />
        </mxCell>
        <mxCell id="z3GhhZUf5gj_2L2bfjcH-45" value="3" style="text;html=1;strokeColor=none;fillColor=none;align=center;verticalAlign=middle;whiteSpace=wrap;rounded=0;fontSize=24;" parent="1" vertex="1">
          <mxGeometry x="610" y="370" width="60" height="30" as="geometry" />
        </mxCell>
        <mxCell id="z3GhhZUf5gj_2L2bfjcH-46" value="2" style="text;html=1;strokeColor=none;fillColor=none;align=center;verticalAlign=middle;whiteSpace=wrap;rounded=0;fontSize=24;" parent="1" vertex="1">
          <mxGeometry x="425" y="629" width="60" height="30" as="geometry" />
        </mxCell>
        <mxCell id="z3GhhZUf5gj_2L2bfjcH-47" value="0" style="text;html=1;strokeColor=none;fillColor=none;align=center;verticalAlign=middle;whiteSpace=wrap;rounded=0;fontSize=24;" parent="1" vertex="1">
          <mxGeometry x="243" y="483" width="60" height="30" as="geometry" />
        </mxCell>
        <mxCell id="z3GhhZUf5gj_2L2bfjcH-48" value="6" style="text;html=1;strokeColor=none;fillColor=none;align=center;verticalAlign=middle;whiteSpace=wrap;rounded=0;fontSize=24;" parent="1" vertex="1">
          <mxGeometry x="915" y="290" width="60" height="30" as="geometry" />
        </mxCell>
        <mxCell id="z3GhhZUf5gj_2L2bfjcH-49" value="&lt;div&gt;7&lt;/div&gt;" style="text;html=1;strokeColor=none;fillColor=none;align=center;verticalAlign=middle;whiteSpace=wrap;rounded=0;fontSize=24;" parent="1" vertex="1">
          <mxGeometry x="1095" y="480" width="60" height="30" as="geometry" />
        </mxCell>
        <mxCell id="z3GhhZUf5gj_2L2bfjcH-51" value="8" style="text;html=1;strokeColor=none;fillColor=none;align=center;verticalAlign=middle;whiteSpace=wrap;rounded=0;fontSize=24;rotation=-45;" parent="1" vertex="1">
          <mxGeometry x="350" y="420" width="60" height="30" as="geometry" />
        </mxCell>
        <mxCell id="z3GhhZUf5gj_2L2bfjcH-52" value="6" style="text;html=1;strokeColor=none;fillColor=none;align=center;verticalAlign=middle;whiteSpace=wrap;rounded=0;fontSize=18;rotation=30;" parent="1" vertex="1">
          <mxGeometry x="320" y="570" width="60" height="30" as="geometry" />
        </mxCell>
        <mxCell id="z3GhhZUf5gj_2L2bfjcH-53" value="6" style="text;html=1;strokeColor=none;fillColor=none;align=center;verticalAlign=middle;whiteSpace=wrap;rounded=0;fontSize=18;rotation=-30;" parent="1" vertex="1">
          <mxGeometry x="533" y="585" width="60" height="30" as="geometry" />
        </mxCell>
        <mxCell id="z3GhhZUf5gj_2L2bfjcH-54" value="10" style="text;html=1;strokeColor=none;fillColor=none;align=center;verticalAlign=middle;whiteSpace=wrap;rounded=0;fontSize=18;" parent="1" vertex="1">
          <mxGeometry x="600" y="650" width="60" height="30" as="geometry" />
        </mxCell>
        <mxCell id="z3GhhZUf5gj_2L2bfjcH-55" value="9" style="text;html=1;strokeColor=none;fillColor=none;align=center;verticalAlign=middle;whiteSpace=wrap;rounded=0;fontSize=18;rotation=30;" parent="1" vertex="1">
          <mxGeometry x="673" y="567" width="60" height="30" as="geometry" />
        </mxCell>
        <mxCell id="z3GhhZUf5gj_2L2bfjcH-56" value="4" style="text;html=1;strokeColor=none;fillColor=none;align=center;verticalAlign=middle;whiteSpace=wrap;rounded=0;fontSize=18;rotation=15;" parent="1" vertex="1">
          <mxGeometry x="500" y="350" width="60" height="30" as="geometry" />
        </mxCell>
        <mxCell id="z3GhhZUf5gj_2L2bfjcH-57" value="13" style="text;html=1;strokeColor=none;fillColor=none;align=center;verticalAlign=middle;whiteSpace=wrap;rounded=0;fontSize=18;" parent="1" vertex="1">
          <mxGeometry x="670" y="320" width="60" height="30" as="geometry" />
        </mxCell>
        <mxCell id="z3GhhZUf5gj_2L2bfjcH-58" value="0" style="text;html=1;strokeColor=none;fillColor=none;align=center;verticalAlign=middle;whiteSpace=wrap;rounded=0;fontSize=18;" parent="1" vertex="1">
          <mxGeometry x="740" y="360" width="60" height="30" as="geometry" />
        </mxCell>
        <mxCell id="z3GhhZUf5gj_2L2bfjcH-59" value="7" style="text;html=1;strokeColor=none;fillColor=none;align=center;verticalAlign=middle;whiteSpace=wrap;rounded=0;fontSize=18;rotation=45;" parent="1" vertex="1">
          <mxGeometry x="970" y="400" width="60" height="30" as="geometry" />
        </mxCell>
        <mxCell id="z3GhhZUf5gj_2L2bfjcH-60" value="11" style="text;html=1;strokeColor=none;fillColor=none;align=center;verticalAlign=middle;whiteSpace=wrap;rounded=0;fontSize=18;rotation=-30;" parent="1" vertex="1">
          <mxGeometry x="935" y="588" width="60" height="30" as="geometry" />
        </mxCell>
        <mxCell id="z3GhhZUf5gj_2L2bfjcH-61" value="5" style="text;html=1;strokeColor=none;fillColor=none;align=center;verticalAlign=middle;whiteSpace=wrap;rounded=0;fontSize=18;" parent="1" vertex="1">
          <mxGeometry x="673" y="480" width="60" height="30" as="geometry" />
        </mxCell>
        <mxCell id="z3GhhZUf5gj_2L2bfjcH-62" value="" style="endArrow=classic;html=1;rounded=0;fontSize=18;entryX=0.375;entryY=1;entryDx=0;entryDy=0;entryPerimeter=0;strokeWidth=3;" parent="1" source="z3GhhZUf5gj_2L2bfjcH-6" target="z3GhhZUf5gj_2L2bfjcH-8" edge="1">
          <mxGeometry width="50" height="50" relative="1" as="geometry">
            <mxPoint x="870" y="510" as="sourcePoint" />
            <mxPoint x="730" y="500" as="targetPoint" />
          </mxGeometry>
        </mxCell>
        <mxCell id="z3GhhZUf5gj_2L2bfjcH-65" value="b9" style="text;html=1;strokeColor=none;fillColor=none;align=center;verticalAlign=middle;whiteSpace=wrap;rounded=0;fontSize=12;" parent="1" vertex="1">
          <mxGeometry x="830" y="450" width="60" height="30" as="geometry" />
        </mxCell>
        <mxCell id="z3GhhZUf5gj_2L2bfjcH-67" value="10" style="text;html=1;strokeColor=none;fillColor=none;align=center;verticalAlign=middle;whiteSpace=wrap;rounded=0;fontSize=12;" parent="1" vertex="1">
          <mxGeometry x="881" y="464" width="60" height="30" as="geometry" />
        </mxCell>
        <mxCell id="z3GhhZUf5gj_2L2bfjcH-69" value="&lt;font color=&quot;#00FF00&quot;&gt;0&lt;/font&gt;" style="text;html=1;strokeColor=none;fillColor=none;align=center;verticalAlign=middle;whiteSpace=wrap;rounded=0;fontSize=18;" parent="1" vertex="1">
          <mxGeometry x="245" y="449" width="60" height="30" as="geometry" />
        </mxCell>
        <mxCell id="z3GhhZUf5gj_2L2bfjcH-70" value="8" style="text;html=1;strokeColor=none;fillColor=none;align=center;verticalAlign=middle;whiteSpace=wrap;rounded=0;fontSize=18;fontColor=#00FF00;" parent="1" vertex="1">
          <mxGeometry x="425" y="250" width="60" height="30" as="geometry" />
        </mxCell>
        <mxCell id="z3GhhZUf5gj_2L2bfjcH-71" value="6" style="text;html=1;strokeColor=none;fillColor=none;align=center;verticalAlign=middle;whiteSpace=wrap;rounded=0;fontSize=18;fontColor=#00FF00;" parent="1" vertex="1">
          <mxGeometry x="425" y="590" width="60" height="30" as="geometry" />
        </mxCell>
        <mxCell id="z3GhhZUf5gj_2L2bfjcH-72" value="12" style="text;html=1;strokeColor=none;fillColor=none;align=center;verticalAlign=middle;whiteSpace=wrap;rounded=0;fontSize=18;fontColor=#00FF00;" parent="1" vertex="1">
          <mxGeometry x="600" y="340" width="60" height="30" as="geometry" />
        </mxCell>
        <mxCell id="z3GhhZUf5gj_2L2bfjcH-73" value="12" style="text;html=1;strokeColor=none;fillColor=none;align=center;verticalAlign=middle;whiteSpace=wrap;rounded=0;fontSize=18;fontColor=#00FF00;" parent="1" vertex="1">
          <mxGeometry x="582" y="470" width="60" height="30" as="geometry" />
        </mxCell>
        <mxCell id="z3GhhZUf5gj_2L2bfjcH-74" value="31" style="text;html=1;strokeColor=none;fillColor=none;align=center;verticalAlign=middle;whiteSpace=wrap;rounded=0;fontSize=18;fontColor=#00FF00;" parent="1" vertex="1">
          <mxGeometry x="920" y="258" width="60" height="30" as="geometry" />
        </mxCell>
        <mxCell id="z3GhhZUf5gj_2L2bfjcH-75" value="21" style="text;html=1;strokeColor=none;fillColor=none;align=center;verticalAlign=middle;whiteSpace=wrap;rounded=0;fontSize=18;fontColor=#00FF00;" parent="1" vertex="1">
          <mxGeometry x="807" y="598" width="60" height="30" as="geometry" />
        </mxCell>
        <mxCell id="z3GhhZUf5gj_2L2bfjcH-76" value="38" style="text;html=1;strokeColor=none;fillColor=none;align=center;verticalAlign=middle;whiteSpace=wrap;rounded=0;fontSize=18;fontColor=#00FF00;" parent="1" vertex="1">
          <mxGeometry x="1100" y="448" width="60" height="30" as="geometry" />
        </mxCell>
        <mxCell id="z3GhhZUf5gj_2L2bfjcH-77" value="38" style="text;html=1;align=center;verticalAlign=middle;whiteSpace=wrap;rounded=0;fontSize=18;fontColor=#FF3333;" parent="1" vertex="1">
          <mxGeometry x="1095" y="510" width="60" height="30" as="geometry" />
        </mxCell>
        <mxCell id="z3GhhZUf5gj_2L2bfjcH-78" value="21" style="text;html=1;strokeColor=none;fillColor=none;align=center;verticalAlign=middle;whiteSpace=wrap;rounded=0;fontSize=18;fontColor=#FF3333;" parent="1" vertex="1">
          <mxGeometry x="810" y="659" width="60" height="30" as="geometry" />
        </mxCell>
        <mxCell id="z3GhhZUf5gj_2L2bfjcH-79" value="31" style="text;html=1;strokeColor=none;fillColor=none;align=center;verticalAlign=middle;whiteSpace=wrap;rounded=0;fontSize=18;fontColor=#FF3333;" parent="1" vertex="1">
          <mxGeometry x="920" y="319" width="60" height="30" as="geometry" />
        </mxCell>
        <mxCell id="z3GhhZUf5gj_2L2bfjcH-80" value="12" style="text;html=1;strokeColor=none;fillColor=none;align=center;verticalAlign=middle;whiteSpace=wrap;rounded=0;fontSize=18;fontColor=#FF3333;" parent="1" vertex="1">
          <mxGeometry x="582" y="539" width="60" height="30" as="geometry" />
        </mxCell>
        <mxCell id="z3GhhZUf5gj_2L2bfjcH-81" value="16" style="text;html=1;strokeColor=none;fillColor=none;align=center;verticalAlign=middle;whiteSpace=wrap;rounded=0;fontSize=18;fontColor=#FF3333;" parent="1" vertex="1">
          <mxGeometry x="600" y="400" width="60" height="30" as="geometry" />
        </mxCell>
        <mxCell id="z3GhhZUf5gj_2L2bfjcH-82" value="6" style="text;html=1;strokeColor=none;fillColor=none;align=center;verticalAlign=middle;whiteSpace=wrap;rounded=0;fontSize=18;fontColor=#FF3333;" parent="1" vertex="1">
          <mxGeometry x="425" y="659" width="60" height="30" as="geometry" />
        </mxCell>
        <mxCell id="z3GhhZUf5gj_2L2bfjcH-83" value="12" style="text;html=1;strokeColor=none;fillColor=none;align=center;verticalAlign=middle;whiteSpace=wrap;rounded=0;fontSize=18;fontColor=#FF3333;" parent="1" vertex="1">
          <mxGeometry x="425" y="320" width="60" height="30" as="geometry" />
        </mxCell>
        <mxCell id="z3GhhZUf5gj_2L2bfjcH-84" value="0" style="text;html=1;strokeColor=none;fillColor=none;align=center;verticalAlign=middle;whiteSpace=wrap;rounded=0;fontSize=18;fontColor=#FF3333;" parent="1" vertex="1">
          <mxGeometry x="245" y="513" width="60" height="30" as="geometry" />
        </mxCell>
        <mxCell id="BEK1t2Hzz8crJGVik2GR-1" value="&lt;font style=&quot;font-size: 24px;&quot;&gt;Сетеой график для работ с максимальной продолжительностью&lt;/font&gt;" style="text;html=1;strokeColor=none;fillColor=none;align=center;verticalAlign=middle;whiteSpace=wrap;rounded=0;" parent="1" vertex="1">
          <mxGeometry x="240" y="130" width="810" height="30" as="geometry" />
        </mxCell>
        <mxCell id="BEK1t2Hzz8crJGVik2GR-2" style="edgeStyle=orthogonalEdgeStyle;rounded=0;orthogonalLoop=1;jettySize=auto;html=1;exitX=0.5;exitY=0;exitDx=0;exitDy=0;entryX=0.75;entryY=0;entryDx=0;entryDy=0;fontSize=24;" parent="1" source="z3GhhZUf5gj_2L2bfjcH-71" target="z3GhhZUf5gj_2L2bfjcH-71" edge="1">
          <mxGeometry relative="1" as="geometry" />
        </mxCell>
        <mxCell id="NDpiz6VPTV_tCR25hOYM-70" value="" style="ellipse;whiteSpace=wrap;html=1;aspect=fixed;" vertex="1" parent="1">
          <mxGeometry x="245" y="1030" width="110" height="110" as="geometry" />
        </mxCell>
        <mxCell id="NDpiz6VPTV_tCR25hOYM-71" value="" style="ellipse;whiteSpace=wrap;html=1;aspect=fixed;" vertex="1" parent="1">
          <mxGeometry x="425" y="840" width="110" height="110" as="geometry" />
        </mxCell>
        <mxCell id="NDpiz6VPTV_tCR25hOYM-72" value="" style="ellipse;whiteSpace=wrap;html=1;aspect=fixed;" vertex="1" parent="1">
          <mxGeometry x="425" y="1180" width="110" height="110" as="geometry" />
        </mxCell>
        <mxCell id="NDpiz6VPTV_tCR25hOYM-73" value="" style="ellipse;whiteSpace=wrap;html=1;aspect=fixed;" vertex="1" parent="1">
          <mxGeometry x="605" y="930" width="100" height="100" as="geometry" />
        </mxCell>
        <mxCell id="NDpiz6VPTV_tCR25hOYM-74" value="" style="ellipse;whiteSpace=wrap;html=1;aspect=fixed;" vertex="1" parent="1">
          <mxGeometry x="805" y="1180" width="110" height="110" as="geometry" />
        </mxCell>
        <mxCell id="NDpiz6VPTV_tCR25hOYM-75" value="" style="ellipse;whiteSpace=wrap;html=1;aspect=fixed;" vertex="1" parent="1">
          <mxGeometry x="585" y="1059" width="100" height="100" as="geometry" />
        </mxCell>
        <mxCell id="NDpiz6VPTV_tCR25hOYM-76" value="" style="ellipse;whiteSpace=wrap;html=1;aspect=fixed;" vertex="1" parent="1">
          <mxGeometry x="915" y="840" width="110" height="110" as="geometry" />
        </mxCell>
        <mxCell id="NDpiz6VPTV_tCR25hOYM-77" value="" style="ellipse;whiteSpace=wrap;html=1;aspect=fixed;" vertex="1" parent="1">
          <mxGeometry x="1095" y="1030" width="110" height="110" as="geometry" />
        </mxCell>
        <mxCell id="NDpiz6VPTV_tCR25hOYM-78" value="" style="endArrow=classic;html=1;rounded=0;entryX=0.194;entryY=0.97;entryDx=0;entryDy=0;entryPerimeter=0;strokeWidth=3;" edge="1" parent="1" source="NDpiz6VPTV_tCR25hOYM-70" target="NDpiz6VPTV_tCR25hOYM-71">
          <mxGeometry width="50" height="50" relative="1" as="geometry">
            <mxPoint x="715" y="1140" as="sourcePoint" />
            <mxPoint x="765" y="1090" as="targetPoint" />
          </mxGeometry>
        </mxCell>
        <mxCell id="NDpiz6VPTV_tCR25hOYM-79" value="" style="endArrow=classic;html=1;rounded=0;" edge="1" parent="1" source="NDpiz6VPTV_tCR25hOYM-72" target="NDpiz6VPTV_tCR25hOYM-74">
          <mxGeometry width="50" height="50" relative="1" as="geometry">
            <mxPoint x="715" y="1140" as="sourcePoint" />
            <mxPoint x="765" y="1090" as="targetPoint" />
          </mxGeometry>
        </mxCell>
        <mxCell id="NDpiz6VPTV_tCR25hOYM-80" value="" style="endArrow=classic;html=1;rounded=0;strokeWidth=2;" edge="1" parent="1" source="NDpiz6VPTV_tCR25hOYM-72" target="NDpiz6VPTV_tCR25hOYM-75">
          <mxGeometry width="50" height="50" relative="1" as="geometry">
            <mxPoint x="715" y="1140" as="sourcePoint" />
            <mxPoint x="765" y="1090" as="targetPoint" />
          </mxGeometry>
        </mxCell>
        <mxCell id="NDpiz6VPTV_tCR25hOYM-81" value="" style="endArrow=classic;html=1;rounded=0;strokeWidth=3;" edge="1" parent="1" source="NDpiz6VPTV_tCR25hOYM-71" target="NDpiz6VPTV_tCR25hOYM-73">
          <mxGeometry width="50" height="50" relative="1" as="geometry">
            <mxPoint x="715" y="1140" as="sourcePoint" />
            <mxPoint x="765" y="1090" as="targetPoint" />
          </mxGeometry>
        </mxCell>
        <mxCell id="NDpiz6VPTV_tCR25hOYM-82" value="" style="endArrow=classic;html=1;rounded=0;" edge="1" parent="1" source="NDpiz6VPTV_tCR25hOYM-71" target="NDpiz6VPTV_tCR25hOYM-76">
          <mxGeometry width="50" height="50" relative="1" as="geometry">
            <mxPoint x="715" y="1140" as="sourcePoint" />
            <mxPoint x="765" y="1090" as="targetPoint" />
          </mxGeometry>
        </mxCell>
        <mxCell id="NDpiz6VPTV_tCR25hOYM-83" value="" style="endArrow=classic;html=1;rounded=0;strokeWidth=3;" edge="1" parent="1" source="NDpiz6VPTV_tCR25hOYM-70" target="NDpiz6VPTV_tCR25hOYM-72">
          <mxGeometry width="50" height="50" relative="1" as="geometry">
            <mxPoint x="715" y="1140" as="sourcePoint" />
            <mxPoint x="765" y="1090" as="targetPoint" />
          </mxGeometry>
        </mxCell>
        <mxCell id="NDpiz6VPTV_tCR25hOYM-84" value="" style="endArrow=classic;html=1;rounded=0;entryX=0;entryY=0;entryDx=0;entryDy=0;strokeWidth=3;" edge="1" parent="1" source="NDpiz6VPTV_tCR25hOYM-75" target="NDpiz6VPTV_tCR25hOYM-74">
          <mxGeometry width="50" height="50" relative="1" as="geometry">
            <mxPoint x="715" y="1140" as="sourcePoint" />
            <mxPoint x="765" y="1090" as="targetPoint" />
          </mxGeometry>
        </mxCell>
        <mxCell id="NDpiz6VPTV_tCR25hOYM-85" value="" style="endArrow=classic;html=1;rounded=0;strokeWidth=3;" edge="1" parent="1" source="NDpiz6VPTV_tCR25hOYM-73" target="NDpiz6VPTV_tCR25hOYM-74">
          <mxGeometry width="50" height="50" relative="1" as="geometry">
            <mxPoint x="715" y="1140" as="sourcePoint" />
            <mxPoint x="765" y="1090" as="targetPoint" />
          </mxGeometry>
        </mxCell>
        <mxCell id="NDpiz6VPTV_tCR25hOYM-86" value="" style="endArrow=classic;html=1;rounded=0;" edge="1" parent="1" source="NDpiz6VPTV_tCR25hOYM-74" target="NDpiz6VPTV_tCR25hOYM-77">
          <mxGeometry width="50" height="50" relative="1" as="geometry">
            <mxPoint x="715" y="1140" as="sourcePoint" />
            <mxPoint x="765" y="1090" as="targetPoint" />
          </mxGeometry>
        </mxCell>
        <mxCell id="NDpiz6VPTV_tCR25hOYM-87" value="" style="endArrow=classic;html=1;rounded=0;strokeWidth=3;" edge="1" parent="1" source="NDpiz6VPTV_tCR25hOYM-76" target="NDpiz6VPTV_tCR25hOYM-77">
          <mxGeometry width="50" height="50" relative="1" as="geometry">
            <mxPoint x="715" y="1140" as="sourcePoint" />
            <mxPoint x="765" y="1090" as="targetPoint" />
          </mxGeometry>
        </mxCell>
        <mxCell id="NDpiz6VPTV_tCR25hOYM-88" value="" style="endArrow=classic;html=1;rounded=0;dashed=1;" edge="1" parent="1" source="NDpiz6VPTV_tCR25hOYM-73" target="NDpiz6VPTV_tCR25hOYM-76">
          <mxGeometry width="50" height="50" relative="1" as="geometry">
            <mxPoint x="715" y="1140" as="sourcePoint" />
            <mxPoint x="765" y="1090" as="targetPoint" />
          </mxGeometry>
        </mxCell>
        <mxCell id="NDpiz6VPTV_tCR25hOYM-89" value="b1" style="text;html=1;strokeColor=none;fillColor=none;align=center;verticalAlign=middle;whiteSpace=wrap;rounded=0;rotation=-50;" vertex="1" parent="1">
          <mxGeometry x="342" y="984" width="60" height="30" as="geometry" />
        </mxCell>
        <mxCell id="NDpiz6VPTV_tCR25hOYM-90" value="b10" style="text;html=1;strokeColor=none;fillColor=none;align=center;verticalAlign=middle;whiteSpace=wrap;rounded=0;rotation=45;" vertex="1" parent="1">
          <mxGeometry x="1031" y="959" width="60" height="30" as="geometry" />
        </mxCell>
        <mxCell id="NDpiz6VPTV_tCR25hOYM-91" value="&lt;div&gt;b4&lt;/div&gt;" style="text;html=1;strokeColor=none;fillColor=none;align=center;verticalAlign=middle;whiteSpace=wrap;rounded=0;rotation=15;" vertex="1" parent="1">
          <mxGeometry x="545" y="910" width="60" height="30" as="geometry" />
        </mxCell>
        <mxCell id="NDpiz6VPTV_tCR25hOYM-92" value="b3" style="text;html=1;strokeColor=none;fillColor=none;align=center;verticalAlign=middle;whiteSpace=wrap;rounded=0;" vertex="1" parent="1">
          <mxGeometry x="675" y="866" width="60" height="30" as="geometry" />
        </mxCell>
        <mxCell id="NDpiz6VPTV_tCR25hOYM-93" value="b8" style="text;html=1;strokeColor=none;fillColor=none;align=center;verticalAlign=middle;whiteSpace=wrap;rounded=0;rotation=30;" vertex="1" parent="1">
          <mxGeometry x="715" y="1120" width="60" height="30" as="geometry" />
        </mxCell>
        <mxCell id="NDpiz6VPTV_tCR25hOYM-94" value="b7" style="text;html=1;strokeColor=none;fillColor=none;align=center;verticalAlign=middle;whiteSpace=wrap;rounded=0;rotation=-30;" vertex="1" parent="1">
          <mxGeometry x="525" y="1140" width="60" height="30" as="geometry" />
        </mxCell>
        <mxCell id="NDpiz6VPTV_tCR25hOYM-95" value="b6" style="text;html=1;strokeColor=none;fillColor=none;align=center;verticalAlign=middle;whiteSpace=wrap;rounded=0;" vertex="1" parent="1">
          <mxGeometry x="625" y="1200" width="60" height="30" as="geometry" />
        </mxCell>
        <mxCell id="NDpiz6VPTV_tCR25hOYM-96" value="b2" style="text;html=1;strokeColor=none;fillColor=none;align=center;verticalAlign=middle;whiteSpace=wrap;rounded=0;rotation=45;" vertex="1" parent="1">
          <mxGeometry x="365" y="1140" width="60" height="30" as="geometry" />
        </mxCell>
        <mxCell id="NDpiz6VPTV_tCR25hOYM-97" value="b11" style="text;html=1;strokeColor=none;fillColor=none;align=center;verticalAlign=middle;whiteSpace=wrap;rounded=0;rotation=-15;" vertex="1" parent="1">
          <mxGeometry x="945" y="1140" width="60" height="30" as="geometry" />
        </mxCell>
        <mxCell id="NDpiz6VPTV_tCR25hOYM-98" value="Ф" style="text;html=1;strokeColor=none;fillColor=none;align=center;verticalAlign=middle;whiteSpace=wrap;rounded=0;rotation=-10;" vertex="1" parent="1">
          <mxGeometry x="755" y="920" width="60" height="30" as="geometry" />
        </mxCell>
        <mxCell id="NDpiz6VPTV_tCR25hOYM-99" value="b5" style="text;html=1;strokeColor=none;fillColor=none;align=center;verticalAlign=middle;whiteSpace=wrap;rounded=0;rotation=60;" vertex="1" parent="1">
          <mxGeometry x="725" y="1060" width="60" height="30" as="geometry" />
        </mxCell>
        <mxCell id="NDpiz6VPTV_tCR25hOYM-100" value="1" style="text;html=1;strokeColor=none;fillColor=none;align=center;verticalAlign=middle;whiteSpace=wrap;rounded=0;fontSize=24;" vertex="1" parent="1">
          <mxGeometry x="450" y="879" width="60" height="30" as="geometry" />
        </mxCell>
        <mxCell id="NDpiz6VPTV_tCR25hOYM-101" value="5" style="text;html=1;strokeColor=none;fillColor=none;align=center;verticalAlign=middle;whiteSpace=wrap;rounded=0;fontSize=24;" vertex="1" parent="1">
          <mxGeometry x="831" y="1219" width="60" height="30" as="geometry" />
        </mxCell>
        <mxCell id="NDpiz6VPTV_tCR25hOYM-102" value="4" style="text;html=1;strokeColor=none;fillColor=none;align=center;verticalAlign=middle;whiteSpace=wrap;rounded=0;fontSize=24;" vertex="1" parent="1">
          <mxGeometry x="607" y="1095" width="60" height="30" as="geometry" />
        </mxCell>
        <mxCell id="NDpiz6VPTV_tCR25hOYM-103" value="3" style="text;html=1;strokeColor=none;fillColor=none;align=center;verticalAlign=middle;whiteSpace=wrap;rounded=0;fontSize=24;" vertex="1" parent="1">
          <mxGeometry x="635" y="960" width="60" height="30" as="geometry" />
        </mxCell>
        <mxCell id="NDpiz6VPTV_tCR25hOYM-104" value="2" style="text;html=1;strokeColor=none;fillColor=none;align=center;verticalAlign=middle;whiteSpace=wrap;rounded=0;fontSize=24;" vertex="1" parent="1">
          <mxGeometry x="450" y="1219" width="60" height="30" as="geometry" />
        </mxCell>
        <mxCell id="NDpiz6VPTV_tCR25hOYM-105" value="0" style="text;html=1;strokeColor=none;fillColor=none;align=center;verticalAlign=middle;whiteSpace=wrap;rounded=0;fontSize=24;" vertex="1" parent="1">
          <mxGeometry x="268" y="1073" width="60" height="30" as="geometry" />
        </mxCell>
        <mxCell id="NDpiz6VPTV_tCR25hOYM-106" value="6" style="text;html=1;strokeColor=none;fillColor=none;align=center;verticalAlign=middle;whiteSpace=wrap;rounded=0;fontSize=24;" vertex="1" parent="1">
          <mxGeometry x="940" y="880" width="60" height="30" as="geometry" />
        </mxCell>
        <mxCell id="NDpiz6VPTV_tCR25hOYM-107" value="&lt;div&gt;7&lt;/div&gt;" style="text;html=1;strokeColor=none;fillColor=none;align=center;verticalAlign=middle;whiteSpace=wrap;rounded=0;fontSize=24;" vertex="1" parent="1">
          <mxGeometry x="1120" y="1070" width="60" height="30" as="geometry" />
        </mxCell>
        <mxCell id="NDpiz6VPTV_tCR25hOYM-108" value="8" style="text;html=1;strokeColor=none;fillColor=none;align=center;verticalAlign=middle;whiteSpace=wrap;rounded=0;fontSize=24;rotation=-45;" vertex="1" parent="1">
          <mxGeometry x="375" y="1010" width="60" height="30" as="geometry" />
        </mxCell>
        <mxCell id="NDpiz6VPTV_tCR25hOYM-109" value="2" style="text;html=1;strokeColor=none;fillColor=none;align=center;verticalAlign=middle;whiteSpace=wrap;rounded=0;fontSize=18;rotation=30;" vertex="1" parent="1">
          <mxGeometry x="345" y="1160" width="60" height="30" as="geometry" />
        </mxCell>
        <mxCell id="NDpiz6VPTV_tCR25hOYM-110" value="6" style="text;html=1;strokeColor=none;fillColor=none;align=center;verticalAlign=middle;whiteSpace=wrap;rounded=0;fontSize=18;rotation=-30;" vertex="1" parent="1">
          <mxGeometry x="558" y="1175" width="60" height="30" as="geometry" />
        </mxCell>
        <mxCell id="NDpiz6VPTV_tCR25hOYM-111" value="10" style="text;html=1;strokeColor=none;fillColor=none;align=center;verticalAlign=middle;whiteSpace=wrap;rounded=0;fontSize=18;" vertex="1" parent="1">
          <mxGeometry x="625" y="1240" width="60" height="30" as="geometry" />
        </mxCell>
        <mxCell id="NDpiz6VPTV_tCR25hOYM-112" value="9" style="text;html=1;strokeColor=none;fillColor=none;align=center;verticalAlign=middle;whiteSpace=wrap;rounded=0;fontSize=18;rotation=30;" vertex="1" parent="1">
          <mxGeometry x="698" y="1157" width="60" height="30" as="geometry" />
        </mxCell>
        <mxCell id="NDpiz6VPTV_tCR25hOYM-113" value="4" style="text;html=1;strokeColor=none;fillColor=none;align=center;verticalAlign=middle;whiteSpace=wrap;rounded=0;fontSize=18;rotation=15;" vertex="1" parent="1">
          <mxGeometry x="525" y="940" width="60" height="30" as="geometry" />
        </mxCell>
        <mxCell id="NDpiz6VPTV_tCR25hOYM-114" value="13" style="text;html=1;strokeColor=none;fillColor=none;align=center;verticalAlign=middle;whiteSpace=wrap;rounded=0;fontSize=18;" vertex="1" parent="1">
          <mxGeometry x="695" y="910" width="60" height="30" as="geometry" />
        </mxCell>
        <mxCell id="NDpiz6VPTV_tCR25hOYM-115" value="0" style="text;html=1;strokeColor=none;fillColor=none;align=center;verticalAlign=middle;whiteSpace=wrap;rounded=0;fontSize=18;" vertex="1" parent="1">
          <mxGeometry x="765" y="950" width="60" height="30" as="geometry" />
        </mxCell>
        <mxCell id="NDpiz6VPTV_tCR25hOYM-116" value="7" style="text;html=1;strokeColor=none;fillColor=none;align=center;verticalAlign=middle;whiteSpace=wrap;rounded=0;fontSize=18;rotation=45;" vertex="1" parent="1">
          <mxGeometry x="995" y="990" width="60" height="30" as="geometry" />
        </mxCell>
        <mxCell id="NDpiz6VPTV_tCR25hOYM-117" value="11" style="text;html=1;strokeColor=none;fillColor=none;align=center;verticalAlign=middle;whiteSpace=wrap;rounded=0;fontSize=18;rotation=-30;" vertex="1" parent="1">
          <mxGeometry x="960" y="1178" width="60" height="30" as="geometry" />
        </mxCell>
        <mxCell id="NDpiz6VPTV_tCR25hOYM-118" value="5" style="text;html=1;strokeColor=none;fillColor=none;align=center;verticalAlign=middle;whiteSpace=wrap;rounded=0;fontSize=18;" vertex="1" parent="1">
          <mxGeometry x="698" y="1070" width="60" height="30" as="geometry" />
        </mxCell>
        <mxCell id="NDpiz6VPTV_tCR25hOYM-119" value="" style="endArrow=classic;html=1;rounded=0;fontSize=18;entryX=0.375;entryY=1;entryDx=0;entryDy=0;entryPerimeter=0;strokeWidth=3;" edge="1" parent="1" source="NDpiz6VPTV_tCR25hOYM-74" target="NDpiz6VPTV_tCR25hOYM-76">
          <mxGeometry width="50" height="50" relative="1" as="geometry">
            <mxPoint x="895" y="1100" as="sourcePoint" />
            <mxPoint x="755" y="1090" as="targetPoint" />
          </mxGeometry>
        </mxCell>
        <mxCell id="NDpiz6VPTV_tCR25hOYM-120" value="b9" style="text;html=1;strokeColor=none;fillColor=none;align=center;verticalAlign=middle;whiteSpace=wrap;rounded=0;fontSize=12;" vertex="1" parent="1">
          <mxGeometry x="855" y="1040" width="60" height="30" as="geometry" />
        </mxCell>
        <mxCell id="NDpiz6VPTV_tCR25hOYM-121" value="10" style="text;html=1;strokeColor=none;fillColor=none;align=center;verticalAlign=middle;whiteSpace=wrap;rounded=0;fontSize=12;" vertex="1" parent="1">
          <mxGeometry x="906" y="1054" width="60" height="30" as="geometry" />
        </mxCell>
        <mxCell id="NDpiz6VPTV_tCR25hOYM-122" value="&lt;font color=&quot;#00FF00&quot;&gt;0&lt;/font&gt;" style="text;html=1;strokeColor=none;fillColor=none;align=center;verticalAlign=middle;whiteSpace=wrap;rounded=0;fontSize=18;" vertex="1" parent="1">
          <mxGeometry x="270" y="1039" width="60" height="30" as="geometry" />
        </mxCell>
        <mxCell id="NDpiz6VPTV_tCR25hOYM-123" value="8" style="text;html=1;strokeColor=none;fillColor=none;align=center;verticalAlign=middle;whiteSpace=wrap;rounded=0;fontSize=18;fontColor=#00FF00;" vertex="1" parent="1">
          <mxGeometry x="450" y="840" width="60" height="30" as="geometry" />
        </mxCell>
        <mxCell id="NDpiz6VPTV_tCR25hOYM-124" value="2" style="text;html=1;strokeColor=none;fillColor=none;align=center;verticalAlign=middle;whiteSpace=wrap;rounded=0;fontSize=18;fontColor=#00FF00;" vertex="1" parent="1">
          <mxGeometry x="450" y="1180" width="60" height="30" as="geometry" />
        </mxCell>
        <mxCell id="NDpiz6VPTV_tCR25hOYM-125" value="12" style="text;html=1;strokeColor=none;fillColor=none;align=center;verticalAlign=middle;whiteSpace=wrap;rounded=0;fontSize=18;fontColor=#00FF00;" vertex="1" parent="1">
          <mxGeometry x="625" y="930" width="60" height="30" as="geometry" />
        </mxCell>
        <mxCell id="NDpiz6VPTV_tCR25hOYM-126" value="8" style="text;html=1;strokeColor=none;fillColor=none;align=center;verticalAlign=middle;whiteSpace=wrap;rounded=0;fontSize=18;fontColor=#00FF00;" vertex="1" parent="1">
          <mxGeometry x="607" y="1060" width="60" height="30" as="geometry" />
        </mxCell>
        <mxCell id="NDpiz6VPTV_tCR25hOYM-127" value="27" style="text;html=1;strokeColor=none;fillColor=none;align=center;verticalAlign=middle;whiteSpace=wrap;rounded=0;fontSize=18;fontColor=#00FF00;" vertex="1" parent="1">
          <mxGeometry x="945" y="848" width="60" height="30" as="geometry" />
        </mxCell>
        <mxCell id="NDpiz6VPTV_tCR25hOYM-128" value="17" style="text;html=1;strokeColor=none;fillColor=none;align=center;verticalAlign=middle;whiteSpace=wrap;rounded=0;fontSize=18;fontColor=#00FF00;" vertex="1" parent="1">
          <mxGeometry x="832" y="1188" width="60" height="30" as="geometry" />
        </mxCell>
        <mxCell id="NDpiz6VPTV_tCR25hOYM-129" value="34" style="text;html=1;strokeColor=none;fillColor=none;align=center;verticalAlign=middle;whiteSpace=wrap;rounded=0;fontSize=18;fontColor=#00FF00;" vertex="1" parent="1">
          <mxGeometry x="1125" y="1038" width="60" height="30" as="geometry" />
        </mxCell>
        <mxCell id="NDpiz6VPTV_tCR25hOYM-130" value="34" style="text;html=1;align=center;verticalAlign=middle;whiteSpace=wrap;rounded=0;fontSize=18;fontColor=#FF3333;" vertex="1" parent="1">
          <mxGeometry x="1120" y="1100" width="60" height="30" as="geometry" />
        </mxCell>
        <mxCell id="NDpiz6VPTV_tCR25hOYM-131" value="17" style="text;html=1;strokeColor=none;fillColor=none;align=center;verticalAlign=middle;whiteSpace=wrap;rounded=0;fontSize=18;fontColor=#FF3333;" vertex="1" parent="1">
          <mxGeometry x="835" y="1249" width="60" height="30" as="geometry" />
        </mxCell>
        <mxCell id="NDpiz6VPTV_tCR25hOYM-132" value="27" style="text;html=1;strokeColor=none;fillColor=none;align=center;verticalAlign=middle;whiteSpace=wrap;rounded=0;fontSize=18;fontColor=#FF3333;" vertex="1" parent="1">
          <mxGeometry x="945" y="909" width="60" height="30" as="geometry" />
        </mxCell>
        <mxCell id="NDpiz6VPTV_tCR25hOYM-133" value="8" style="text;html=1;strokeColor=none;fillColor=none;align=center;verticalAlign=middle;whiteSpace=wrap;rounded=0;fontSize=18;fontColor=#FF3333;" vertex="1" parent="1">
          <mxGeometry x="607" y="1129" width="60" height="30" as="geometry" />
        </mxCell>
        <mxCell id="NDpiz6VPTV_tCR25hOYM-134" value="12" style="text;html=1;strokeColor=none;fillColor=none;align=center;verticalAlign=middle;whiteSpace=wrap;rounded=0;fontSize=18;fontColor=#FF3333;" vertex="1" parent="1">
          <mxGeometry x="625" y="990" width="60" height="30" as="geometry" />
        </mxCell>
        <mxCell id="NDpiz6VPTV_tCR25hOYM-135" value="2" style="text;html=1;strokeColor=none;fillColor=none;align=center;verticalAlign=middle;whiteSpace=wrap;rounded=0;fontSize=18;fontColor=#FF3333;" vertex="1" parent="1">
          <mxGeometry x="450" y="1249" width="60" height="30" as="geometry" />
        </mxCell>
        <mxCell id="NDpiz6VPTV_tCR25hOYM-136" value="8" style="text;html=1;strokeColor=none;fillColor=none;align=center;verticalAlign=middle;whiteSpace=wrap;rounded=0;fontSize=18;fontColor=#FF3333;" vertex="1" parent="1">
          <mxGeometry x="450" y="910" width="60" height="30" as="geometry" />
        </mxCell>
        <mxCell id="NDpiz6VPTV_tCR25hOYM-137" value="0" style="text;html=1;strokeColor=none;fillColor=none;align=center;verticalAlign=middle;whiteSpace=wrap;rounded=0;fontSize=18;fontColor=#FF3333;" vertex="1" parent="1">
          <mxGeometry x="270" y="1103" width="60" height="30" as="geometry" />
        </mxCell>
        <mxCell id="NDpiz6VPTV_tCR25hOYM-138" style="edgeStyle=orthogonalEdgeStyle;rounded=0;orthogonalLoop=1;jettySize=auto;html=1;exitX=0.5;exitY=0;exitDx=0;exitDy=0;entryX=0.75;entryY=0;entryDx=0;entryDy=0;fontSize=24;" edge="1" parent="1" source="NDpiz6VPTV_tCR25hOYM-124" target="NDpiz6VPTV_tCR25hOYM-124">
          <mxGeometry relative="1" as="geometry" />
        </mxCell>
        <mxCell id="NDpiz6VPTV_tCR25hOYM-208" value="" style="ellipse;whiteSpace=wrap;html=1;aspect=fixed;" vertex="1" parent="1">
          <mxGeometry x="265" y="1670" width="110" height="110" as="geometry" />
        </mxCell>
        <mxCell id="NDpiz6VPTV_tCR25hOYM-209" value="" style="ellipse;whiteSpace=wrap;html=1;aspect=fixed;" vertex="1" parent="1">
          <mxGeometry x="445" y="1480" width="110" height="110" as="geometry" />
        </mxCell>
        <mxCell id="NDpiz6VPTV_tCR25hOYM-210" value="" style="ellipse;whiteSpace=wrap;html=1;aspect=fixed;" vertex="1" parent="1">
          <mxGeometry x="445" y="1820" width="110" height="110" as="geometry" />
        </mxCell>
        <mxCell id="NDpiz6VPTV_tCR25hOYM-211" value="" style="ellipse;whiteSpace=wrap;html=1;aspect=fixed;" vertex="1" parent="1">
          <mxGeometry x="625" y="1570" width="100" height="100" as="geometry" />
        </mxCell>
        <mxCell id="NDpiz6VPTV_tCR25hOYM-212" value="" style="ellipse;whiteSpace=wrap;html=1;aspect=fixed;" vertex="1" parent="1">
          <mxGeometry x="825" y="1820" width="110" height="110" as="geometry" />
        </mxCell>
        <mxCell id="NDpiz6VPTV_tCR25hOYM-213" value="" style="ellipse;whiteSpace=wrap;html=1;aspect=fixed;" vertex="1" parent="1">
          <mxGeometry x="605" y="1699" width="100" height="100" as="geometry" />
        </mxCell>
        <mxCell id="NDpiz6VPTV_tCR25hOYM-214" value="" style="ellipse;whiteSpace=wrap;html=1;aspect=fixed;" vertex="1" parent="1">
          <mxGeometry x="935" y="1480" width="110" height="110" as="geometry" />
        </mxCell>
        <mxCell id="NDpiz6VPTV_tCR25hOYM-215" value="" style="ellipse;whiteSpace=wrap;html=1;aspect=fixed;" vertex="1" parent="1">
          <mxGeometry x="1115" y="1670" width="110" height="110" as="geometry" />
        </mxCell>
        <mxCell id="NDpiz6VPTV_tCR25hOYM-216" value="" style="endArrow=classic;html=1;rounded=0;entryX=0.194;entryY=0.97;entryDx=0;entryDy=0;entryPerimeter=0;strokeWidth=3;" edge="1" parent="1" source="NDpiz6VPTV_tCR25hOYM-208" target="NDpiz6VPTV_tCR25hOYM-209">
          <mxGeometry width="50" height="50" relative="1" as="geometry">
            <mxPoint x="735" y="1780" as="sourcePoint" />
            <mxPoint x="785" y="1730" as="targetPoint" />
          </mxGeometry>
        </mxCell>
        <mxCell id="NDpiz6VPTV_tCR25hOYM-217" value="" style="endArrow=classic;html=1;rounded=0;" edge="1" parent="1" source="NDpiz6VPTV_tCR25hOYM-210" target="NDpiz6VPTV_tCR25hOYM-212">
          <mxGeometry width="50" height="50" relative="1" as="geometry">
            <mxPoint x="735" y="1780" as="sourcePoint" />
            <mxPoint x="785" y="1730" as="targetPoint" />
          </mxGeometry>
        </mxCell>
        <mxCell id="NDpiz6VPTV_tCR25hOYM-218" value="" style="endArrow=classic;html=1;rounded=0;strokeWidth=2;" edge="1" parent="1" source="NDpiz6VPTV_tCR25hOYM-210" target="NDpiz6VPTV_tCR25hOYM-213">
          <mxGeometry width="50" height="50" relative="1" as="geometry">
            <mxPoint x="735" y="1780" as="sourcePoint" />
            <mxPoint x="785" y="1730" as="targetPoint" />
          </mxGeometry>
        </mxCell>
        <mxCell id="NDpiz6VPTV_tCR25hOYM-219" value="" style="endArrow=classic;html=1;rounded=0;strokeWidth=3;" edge="1" parent="1" source="NDpiz6VPTV_tCR25hOYM-209" target="NDpiz6VPTV_tCR25hOYM-211">
          <mxGeometry width="50" height="50" relative="1" as="geometry">
            <mxPoint x="735" y="1780" as="sourcePoint" />
            <mxPoint x="785" y="1730" as="targetPoint" />
          </mxGeometry>
        </mxCell>
        <mxCell id="NDpiz6VPTV_tCR25hOYM-220" value="" style="endArrow=classic;html=1;rounded=0;" edge="1" parent="1" source="NDpiz6VPTV_tCR25hOYM-209" target="NDpiz6VPTV_tCR25hOYM-214">
          <mxGeometry width="50" height="50" relative="1" as="geometry">
            <mxPoint x="735" y="1780" as="sourcePoint" />
            <mxPoint x="785" y="1730" as="targetPoint" />
          </mxGeometry>
        </mxCell>
        <mxCell id="NDpiz6VPTV_tCR25hOYM-221" value="" style="endArrow=classic;html=1;rounded=0;strokeWidth=3;" edge="1" parent="1" source="NDpiz6VPTV_tCR25hOYM-208" target="NDpiz6VPTV_tCR25hOYM-210">
          <mxGeometry width="50" height="50" relative="1" as="geometry">
            <mxPoint x="735" y="1780" as="sourcePoint" />
            <mxPoint x="785" y="1730" as="targetPoint" />
          </mxGeometry>
        </mxCell>
        <mxCell id="NDpiz6VPTV_tCR25hOYM-222" value="" style="endArrow=classic;html=1;rounded=0;entryX=0;entryY=0;entryDx=0;entryDy=0;strokeWidth=3;" edge="1" parent="1" source="NDpiz6VPTV_tCR25hOYM-213" target="NDpiz6VPTV_tCR25hOYM-212">
          <mxGeometry width="50" height="50" relative="1" as="geometry">
            <mxPoint x="735" y="1780" as="sourcePoint" />
            <mxPoint x="785" y="1730" as="targetPoint" />
          </mxGeometry>
        </mxCell>
        <mxCell id="NDpiz6VPTV_tCR25hOYM-223" value="" style="endArrow=classic;html=1;rounded=0;strokeWidth=3;" edge="1" parent="1" source="NDpiz6VPTV_tCR25hOYM-211" target="NDpiz6VPTV_tCR25hOYM-212">
          <mxGeometry width="50" height="50" relative="1" as="geometry">
            <mxPoint x="735" y="1780" as="sourcePoint" />
            <mxPoint x="785" y="1730" as="targetPoint" />
          </mxGeometry>
        </mxCell>
        <mxCell id="NDpiz6VPTV_tCR25hOYM-224" value="" style="endArrow=classic;html=1;rounded=0;" edge="1" parent="1" source="NDpiz6VPTV_tCR25hOYM-212" target="NDpiz6VPTV_tCR25hOYM-215">
          <mxGeometry width="50" height="50" relative="1" as="geometry">
            <mxPoint x="735" y="1780" as="sourcePoint" />
            <mxPoint x="785" y="1730" as="targetPoint" />
          </mxGeometry>
        </mxCell>
        <mxCell id="NDpiz6VPTV_tCR25hOYM-225" value="" style="endArrow=classic;html=1;rounded=0;strokeWidth=3;" edge="1" parent="1" source="NDpiz6VPTV_tCR25hOYM-214" target="NDpiz6VPTV_tCR25hOYM-215">
          <mxGeometry width="50" height="50" relative="1" as="geometry">
            <mxPoint x="735" y="1780" as="sourcePoint" />
            <mxPoint x="785" y="1730" as="targetPoint" />
          </mxGeometry>
        </mxCell>
        <mxCell id="NDpiz6VPTV_tCR25hOYM-226" value="" style="endArrow=classic;html=1;rounded=0;dashed=1;" edge="1" parent="1" source="NDpiz6VPTV_tCR25hOYM-211" target="NDpiz6VPTV_tCR25hOYM-214">
          <mxGeometry width="50" height="50" relative="1" as="geometry">
            <mxPoint x="735" y="1780" as="sourcePoint" />
            <mxPoint x="785" y="1730" as="targetPoint" />
          </mxGeometry>
        </mxCell>
        <mxCell id="NDpiz6VPTV_tCR25hOYM-227" value="b1" style="text;html=1;strokeColor=none;fillColor=none;align=center;verticalAlign=middle;whiteSpace=wrap;rounded=0;rotation=-50;" vertex="1" parent="1">
          <mxGeometry x="362" y="1624" width="60" height="30" as="geometry" />
        </mxCell>
        <mxCell id="NDpiz6VPTV_tCR25hOYM-228" value="b10" style="text;html=1;strokeColor=none;fillColor=none;align=center;verticalAlign=middle;whiteSpace=wrap;rounded=0;rotation=45;" vertex="1" parent="1">
          <mxGeometry x="1051" y="1599" width="60" height="30" as="geometry" />
        </mxCell>
        <mxCell id="NDpiz6VPTV_tCR25hOYM-229" value="&lt;div&gt;b4&lt;/div&gt;" style="text;html=1;strokeColor=none;fillColor=none;align=center;verticalAlign=middle;whiteSpace=wrap;rounded=0;rotation=15;" vertex="1" parent="1">
          <mxGeometry x="565" y="1550" width="60" height="30" as="geometry" />
        </mxCell>
        <mxCell id="NDpiz6VPTV_tCR25hOYM-230" value="b3" style="text;html=1;strokeColor=none;fillColor=none;align=center;verticalAlign=middle;whiteSpace=wrap;rounded=0;" vertex="1" parent="1">
          <mxGeometry x="695" y="1506" width="60" height="30" as="geometry" />
        </mxCell>
        <mxCell id="NDpiz6VPTV_tCR25hOYM-231" value="b8" style="text;html=1;strokeColor=none;fillColor=none;align=center;verticalAlign=middle;whiteSpace=wrap;rounded=0;rotation=30;" vertex="1" parent="1">
          <mxGeometry x="735" y="1760" width="60" height="30" as="geometry" />
        </mxCell>
        <mxCell id="NDpiz6VPTV_tCR25hOYM-232" value="b7" style="text;html=1;strokeColor=none;fillColor=none;align=center;verticalAlign=middle;whiteSpace=wrap;rounded=0;rotation=-30;" vertex="1" parent="1">
          <mxGeometry x="545" y="1780" width="60" height="30" as="geometry" />
        </mxCell>
        <mxCell id="NDpiz6VPTV_tCR25hOYM-233" value="b6" style="text;html=1;strokeColor=none;fillColor=none;align=center;verticalAlign=middle;whiteSpace=wrap;rounded=0;" vertex="1" parent="1">
          <mxGeometry x="645" y="1840" width="60" height="30" as="geometry" />
        </mxCell>
        <mxCell id="NDpiz6VPTV_tCR25hOYM-234" value="b2" style="text;html=1;strokeColor=none;fillColor=none;align=center;verticalAlign=middle;whiteSpace=wrap;rounded=0;rotation=45;" vertex="1" parent="1">
          <mxGeometry x="385" y="1780" width="60" height="30" as="geometry" />
        </mxCell>
        <mxCell id="NDpiz6VPTV_tCR25hOYM-235" value="b11" style="text;html=1;strokeColor=none;fillColor=none;align=center;verticalAlign=middle;whiteSpace=wrap;rounded=0;rotation=-15;" vertex="1" parent="1">
          <mxGeometry x="965" y="1780" width="60" height="30" as="geometry" />
        </mxCell>
        <mxCell id="NDpiz6VPTV_tCR25hOYM-236" value="Ф" style="text;html=1;strokeColor=none;fillColor=none;align=center;verticalAlign=middle;whiteSpace=wrap;rounded=0;rotation=-10;" vertex="1" parent="1">
          <mxGeometry x="775" y="1560" width="60" height="30" as="geometry" />
        </mxCell>
        <mxCell id="NDpiz6VPTV_tCR25hOYM-237" value="b5" style="text;html=1;strokeColor=none;fillColor=none;align=center;verticalAlign=middle;whiteSpace=wrap;rounded=0;rotation=60;" vertex="1" parent="1">
          <mxGeometry x="745" y="1700" width="60" height="30" as="geometry" />
        </mxCell>
        <mxCell id="NDpiz6VPTV_tCR25hOYM-238" value="1" style="text;html=1;strokeColor=none;fillColor=none;align=center;verticalAlign=middle;whiteSpace=wrap;rounded=0;fontSize=24;" vertex="1" parent="1">
          <mxGeometry x="470" y="1519" width="60" height="30" as="geometry" />
        </mxCell>
        <mxCell id="NDpiz6VPTV_tCR25hOYM-239" value="5" style="text;html=1;strokeColor=none;fillColor=none;align=center;verticalAlign=middle;whiteSpace=wrap;rounded=0;fontSize=24;" vertex="1" parent="1">
          <mxGeometry x="851" y="1859" width="60" height="30" as="geometry" />
        </mxCell>
        <mxCell id="NDpiz6VPTV_tCR25hOYM-240" value="4" style="text;html=1;strokeColor=none;fillColor=none;align=center;verticalAlign=middle;whiteSpace=wrap;rounded=0;fontSize=24;" vertex="1" parent="1">
          <mxGeometry x="627" y="1735" width="60" height="30" as="geometry" />
        </mxCell>
        <mxCell id="NDpiz6VPTV_tCR25hOYM-241" value="3" style="text;html=1;strokeColor=none;fillColor=none;align=center;verticalAlign=middle;whiteSpace=wrap;rounded=0;fontSize=24;" vertex="1" parent="1">
          <mxGeometry x="655" y="1600" width="60" height="30" as="geometry" />
        </mxCell>
        <mxCell id="NDpiz6VPTV_tCR25hOYM-242" value="2" style="text;html=1;strokeColor=none;fillColor=none;align=center;verticalAlign=middle;whiteSpace=wrap;rounded=0;fontSize=24;" vertex="1" parent="1">
          <mxGeometry x="470" y="1859" width="60" height="30" as="geometry" />
        </mxCell>
        <mxCell id="NDpiz6VPTV_tCR25hOYM-243" value="0" style="text;html=1;strokeColor=none;fillColor=none;align=center;verticalAlign=middle;whiteSpace=wrap;rounded=0;fontSize=24;" vertex="1" parent="1">
          <mxGeometry x="288" y="1713" width="60" height="30" as="geometry" />
        </mxCell>
        <mxCell id="NDpiz6VPTV_tCR25hOYM-244" value="6" style="text;html=1;strokeColor=none;fillColor=none;align=center;verticalAlign=middle;whiteSpace=wrap;rounded=0;fontSize=24;" vertex="1" parent="1">
          <mxGeometry x="960" y="1520" width="60" height="30" as="geometry" />
        </mxCell>
        <mxCell id="NDpiz6VPTV_tCR25hOYM-245" value="&lt;div&gt;7&lt;/div&gt;" style="text;html=1;strokeColor=none;fillColor=none;align=center;verticalAlign=middle;whiteSpace=wrap;rounded=0;fontSize=24;" vertex="1" parent="1">
          <mxGeometry x="1140" y="1710" width="60" height="30" as="geometry" />
        </mxCell>
        <mxCell id="NDpiz6VPTV_tCR25hOYM-246" value="8" style="text;html=1;strokeColor=none;fillColor=none;align=center;verticalAlign=middle;whiteSpace=wrap;rounded=0;fontSize=24;rotation=-45;" vertex="1" parent="1">
          <mxGeometry x="395" y="1650" width="60" height="30" as="geometry" />
        </mxCell>
        <mxCell id="NDpiz6VPTV_tCR25hOYM-247" value="2" style="text;html=1;strokeColor=none;fillColor=none;align=center;verticalAlign=middle;whiteSpace=wrap;rounded=0;fontSize=18;rotation=30;" vertex="1" parent="1">
          <mxGeometry x="365" y="1800" width="60" height="30" as="geometry" />
        </mxCell>
        <mxCell id="NDpiz6VPTV_tCR25hOYM-248" value="6" style="text;html=1;strokeColor=none;fillColor=none;align=center;verticalAlign=middle;whiteSpace=wrap;rounded=0;fontSize=18;rotation=-30;" vertex="1" parent="1">
          <mxGeometry x="578" y="1815" width="60" height="30" as="geometry" />
        </mxCell>
        <mxCell id="NDpiz6VPTV_tCR25hOYM-249" value="10" style="text;html=1;strokeColor=none;fillColor=none;align=center;verticalAlign=middle;whiteSpace=wrap;rounded=0;fontSize=18;" vertex="1" parent="1">
          <mxGeometry x="645" y="1880" width="60" height="30" as="geometry" />
        </mxCell>
        <mxCell id="NDpiz6VPTV_tCR25hOYM-250" value="9" style="text;html=1;strokeColor=none;fillColor=none;align=center;verticalAlign=middle;whiteSpace=wrap;rounded=0;fontSize=18;rotation=30;" vertex="1" parent="1">
          <mxGeometry x="718" y="1797" width="60" height="30" as="geometry" />
        </mxCell>
        <mxCell id="NDpiz6VPTV_tCR25hOYM-251" value="4" style="text;html=1;strokeColor=none;fillColor=none;align=center;verticalAlign=middle;whiteSpace=wrap;rounded=0;fontSize=18;rotation=15;" vertex="1" parent="1">
          <mxGeometry x="545" y="1580" width="60" height="30" as="geometry" />
        </mxCell>
        <mxCell id="NDpiz6VPTV_tCR25hOYM-252" value="13" style="text;html=1;strokeColor=none;fillColor=none;align=center;verticalAlign=middle;whiteSpace=wrap;rounded=0;fontSize=18;" vertex="1" parent="1">
          <mxGeometry x="715" y="1550" width="60" height="30" as="geometry" />
        </mxCell>
        <mxCell id="NDpiz6VPTV_tCR25hOYM-253" value="0" style="text;html=1;strokeColor=none;fillColor=none;align=center;verticalAlign=middle;whiteSpace=wrap;rounded=0;fontSize=18;" vertex="1" parent="1">
          <mxGeometry x="785" y="1590" width="60" height="30" as="geometry" />
        </mxCell>
        <mxCell id="NDpiz6VPTV_tCR25hOYM-254" value="7" style="text;html=1;strokeColor=none;fillColor=none;align=center;verticalAlign=middle;whiteSpace=wrap;rounded=0;fontSize=18;rotation=45;" vertex="1" parent="1">
          <mxGeometry x="1015" y="1630" width="60" height="30" as="geometry" />
        </mxCell>
        <mxCell id="NDpiz6VPTV_tCR25hOYM-255" value="11" style="text;html=1;strokeColor=none;fillColor=none;align=center;verticalAlign=middle;whiteSpace=wrap;rounded=0;fontSize=18;rotation=-30;" vertex="1" parent="1">
          <mxGeometry x="980" y="1818" width="60" height="30" as="geometry" />
        </mxCell>
        <mxCell id="NDpiz6VPTV_tCR25hOYM-256" value="5" style="text;html=1;strokeColor=none;fillColor=none;align=center;verticalAlign=middle;whiteSpace=wrap;rounded=0;fontSize=18;" vertex="1" parent="1">
          <mxGeometry x="718" y="1710" width="60" height="30" as="geometry" />
        </mxCell>
        <mxCell id="NDpiz6VPTV_tCR25hOYM-257" value="" style="endArrow=classic;html=1;rounded=0;fontSize=18;entryX=0.375;entryY=1;entryDx=0;entryDy=0;entryPerimeter=0;strokeWidth=3;" edge="1" parent="1" source="NDpiz6VPTV_tCR25hOYM-212" target="NDpiz6VPTV_tCR25hOYM-214">
          <mxGeometry width="50" height="50" relative="1" as="geometry">
            <mxPoint x="915" y="1740" as="sourcePoint" />
            <mxPoint x="775" y="1730" as="targetPoint" />
          </mxGeometry>
        </mxCell>
        <mxCell id="NDpiz6VPTV_tCR25hOYM-258" value="b9" style="text;html=1;strokeColor=none;fillColor=none;align=center;verticalAlign=middle;whiteSpace=wrap;rounded=0;fontSize=12;" vertex="1" parent="1">
          <mxGeometry x="875" y="1680" width="60" height="30" as="geometry" />
        </mxCell>
        <mxCell id="NDpiz6VPTV_tCR25hOYM-259" value="5" style="text;html=1;strokeColor=none;fillColor=none;align=center;verticalAlign=middle;whiteSpace=wrap;rounded=0;fontSize=12;" vertex="1" parent="1">
          <mxGeometry x="926" y="1694" width="60" height="30" as="geometry" />
        </mxCell>
        <mxCell id="NDpiz6VPTV_tCR25hOYM-260" value="&lt;font color=&quot;#00FF00&quot;&gt;0&lt;/font&gt;" style="text;html=1;strokeColor=none;fillColor=none;align=center;verticalAlign=middle;whiteSpace=wrap;rounded=0;fontSize=18;" vertex="1" parent="1">
          <mxGeometry x="290" y="1679" width="60" height="30" as="geometry" />
        </mxCell>
        <mxCell id="NDpiz6VPTV_tCR25hOYM-261" value="8" style="text;html=1;strokeColor=none;fillColor=none;align=center;verticalAlign=middle;whiteSpace=wrap;rounded=0;fontSize=18;fontColor=#00FF00;" vertex="1" parent="1">
          <mxGeometry x="470" y="1480" width="60" height="30" as="geometry" />
        </mxCell>
        <mxCell id="NDpiz6VPTV_tCR25hOYM-262" value="2" style="text;html=1;strokeColor=none;fillColor=none;align=center;verticalAlign=middle;whiteSpace=wrap;rounded=0;fontSize=18;fontColor=#00FF00;" vertex="1" parent="1">
          <mxGeometry x="470" y="1820" width="60" height="30" as="geometry" />
        </mxCell>
        <mxCell id="NDpiz6VPTV_tCR25hOYM-263" value="12" style="text;html=1;strokeColor=none;fillColor=none;align=center;verticalAlign=middle;whiteSpace=wrap;rounded=0;fontSize=18;fontColor=#00FF00;" vertex="1" parent="1">
          <mxGeometry x="645" y="1570" width="60" height="30" as="geometry" />
        </mxCell>
        <mxCell id="NDpiz6VPTV_tCR25hOYM-264" value="8" style="text;html=1;strokeColor=none;fillColor=none;align=center;verticalAlign=middle;whiteSpace=wrap;rounded=0;fontSize=18;fontColor=#00FF00;" vertex="1" parent="1">
          <mxGeometry x="627" y="1700" width="60" height="30" as="geometry" />
        </mxCell>
        <mxCell id="NDpiz6VPTV_tCR25hOYM-265" value="22" style="text;html=1;strokeColor=none;fillColor=none;align=center;verticalAlign=middle;whiteSpace=wrap;rounded=0;fontSize=18;fontColor=#00FF00;" vertex="1" parent="1">
          <mxGeometry x="965" y="1488" width="60" height="30" as="geometry" />
        </mxCell>
        <mxCell id="NDpiz6VPTV_tCR25hOYM-266" value="17" style="text;html=1;strokeColor=none;fillColor=none;align=center;verticalAlign=middle;whiteSpace=wrap;rounded=0;fontSize=18;fontColor=#00FF00;" vertex="1" parent="1">
          <mxGeometry x="852" y="1828" width="60" height="30" as="geometry" />
        </mxCell>
        <mxCell id="NDpiz6VPTV_tCR25hOYM-267" value="29" style="text;html=1;strokeColor=none;fillColor=none;align=center;verticalAlign=middle;whiteSpace=wrap;rounded=0;fontSize=18;fontColor=#00FF00;" vertex="1" parent="1">
          <mxGeometry x="1145" y="1678" width="60" height="30" as="geometry" />
        </mxCell>
        <mxCell id="NDpiz6VPTV_tCR25hOYM-268" value="29" style="text;html=1;align=center;verticalAlign=middle;whiteSpace=wrap;rounded=0;fontSize=18;fontColor=#FF3333;" vertex="1" parent="1">
          <mxGeometry x="1140" y="1740" width="60" height="30" as="geometry" />
        </mxCell>
        <mxCell id="NDpiz6VPTV_tCR25hOYM-269" value="17" style="text;html=1;strokeColor=none;fillColor=none;align=center;verticalAlign=middle;whiteSpace=wrap;rounded=0;fontSize=18;fontColor=#FF3333;" vertex="1" parent="1">
          <mxGeometry x="855" y="1889" width="60" height="30" as="geometry" />
        </mxCell>
        <mxCell id="NDpiz6VPTV_tCR25hOYM-270" value="22" style="text;html=1;strokeColor=none;fillColor=none;align=center;verticalAlign=middle;whiteSpace=wrap;rounded=0;fontSize=18;fontColor=#FF3333;" vertex="1" parent="1">
          <mxGeometry x="965" y="1549" width="60" height="30" as="geometry" />
        </mxCell>
        <mxCell id="NDpiz6VPTV_tCR25hOYM-271" value="8" style="text;html=1;strokeColor=none;fillColor=none;align=center;verticalAlign=middle;whiteSpace=wrap;rounded=0;fontSize=18;fontColor=#FF3333;" vertex="1" parent="1">
          <mxGeometry x="627" y="1769" width="60" height="30" as="geometry" />
        </mxCell>
        <mxCell id="NDpiz6VPTV_tCR25hOYM-272" value="12" style="text;html=1;strokeColor=none;fillColor=none;align=center;verticalAlign=middle;whiteSpace=wrap;rounded=0;fontSize=18;fontColor=#FF3333;" vertex="1" parent="1">
          <mxGeometry x="645" y="1630" width="60" height="30" as="geometry" />
        </mxCell>
        <mxCell id="NDpiz6VPTV_tCR25hOYM-273" value="2" style="text;html=1;strokeColor=none;fillColor=none;align=center;verticalAlign=middle;whiteSpace=wrap;rounded=0;fontSize=18;fontColor=#FF3333;" vertex="1" parent="1">
          <mxGeometry x="470" y="1889" width="60" height="30" as="geometry" />
        </mxCell>
        <mxCell id="NDpiz6VPTV_tCR25hOYM-274" value="8" style="text;html=1;strokeColor=none;fillColor=none;align=center;verticalAlign=middle;whiteSpace=wrap;rounded=0;fontSize=18;fontColor=#FF3333;" vertex="1" parent="1">
          <mxGeometry x="470" y="1550" width="60" height="30" as="geometry" />
        </mxCell>
        <mxCell id="NDpiz6VPTV_tCR25hOYM-275" value="0" style="text;html=1;strokeColor=none;fillColor=none;align=center;verticalAlign=middle;whiteSpace=wrap;rounded=0;fontSize=18;fontColor=#FF3333;" vertex="1" parent="1">
          <mxGeometry x="290" y="1743" width="60" height="30" as="geometry" />
        </mxCell>
        <mxCell id="NDpiz6VPTV_tCR25hOYM-276" style="edgeStyle=orthogonalEdgeStyle;rounded=0;orthogonalLoop=1;jettySize=auto;html=1;exitX=0.5;exitY=0;exitDx=0;exitDy=0;entryX=0.75;entryY=0;entryDx=0;entryDy=0;fontSize=24;" edge="1" parent="1" source="NDpiz6VPTV_tCR25hOYM-262" target="NDpiz6VPTV_tCR25hOYM-262">
          <mxGeometry relative="1" as="geometry" />
        </mxCell>
      </root>
    </mxGraphModel>
  </diagram>
</mxfile>
